<svg id="Smartphone" xmlns="http://www.w3.org/2000/svg" width="52.94" height="60" viewBox="0 0 52.94 60">
  <metadata><?xpacket begin="﻿" id="W5M0MpCehiHzreSzNTczkc9d"?>
<x:xmpmeta xmlns:x="adobe:ns:meta/" x:xmptk="Adobe XMP Core 5.6-c138 79.159824, 2016/09/14-01:09:01        ">
   <rdf:RDF xmlns:rdf="http://www.w3.org/1999/02/22-rdf-syntax-ns#">
      <rdf:Description rdf:about=""/>
   </rdf:RDF>
</x:xmpmeta>
                                                                                                    
                                                                                                    
                                                                                                    
                                                                                                    
                                                                                                    
                                                                                                    
                                                                                                    
                                                                                                    
                                                                                                    
                                                                                                    
                                                                                                    
                                                                                                    
                                                                                                    
                                                                                                    
                                                                                                    
                                                                                                    
                                                                                                    
                                                                                                    
                                                                                                    
                                                                                                    
                           
<?xpacket end="w"?></metadata>
<defs>
    <style>
      .cls-1 {
        fill: #babeca;
        fill-rule: evenodd;
      }
    </style>
  </defs>
  <path id="Shape" class="cls-1" d="M1425.64,1732.34a0.881,0.881,0,0,1-.88.88h-3.7a0.88,0.88,0,0,1,0-1.76h3.7A0.881,0.881,0,0,1,1425.64,1732.34Z" transform="translate(-1405.03 -1727)"/>
  <path id="Shape-2" data-name="Shape" class="cls-1" d="M1427.57,1780.95v0.66a2.211,2.211,0,0,1-2.21,2.21h-4.9a2.211,2.211,0,0,1-2.21-2.21v-0.66a2.211,2.211,0,0,1,2.21-2.21h4.9A2.211,2.211,0,0,1,1427.57,1780.95Zm-1.76,0a0.446,0.446,0,0,0-.44-0.45h-4.91a0.448,0.448,0,0,0-.45.45v0.66a0.448,0.448,0,0,0,.45.45h4.91a0.446,0.446,0,0,0,.44-0.45v-0.66Z" transform="translate(-1405.03 -1727)"/>
  <path id="Shape-3" data-name="Shape" class="cls-1" d="M1453.47,1765v0.67a2.206,2.206,0,0,1-2.2,2.2h-4.91a2.209,2.209,0,0,1-2.21-2.2V1765a2.211,2.211,0,0,1,2.21-2.21h4.91A2.209,2.209,0,0,1,1453.47,1765Zm-1.75,0a0.455,0.455,0,0,0-.45-0.45h-4.91a0.448,0.448,0,0,0-.45.45v0.67a0.455,0.455,0,0,0,.45.45h4.91a0.461,0.461,0,0,0,.45-0.45V1765Z" transform="translate(-1405.03 -1727)"/>
  <path id="Shape-4" data-name="Shape" class="cls-1" d="M1457.97,1750.71v18.7a2.279,2.279,0,0,1-2.28,2.28H1440.8v11.6a3.715,3.715,0,0,1-3.71,3.71h-12.13a0.88,0.88,0,1,1,0-1.76h12.13a1.953,1.953,0,0,0,1.95-1.95v-11.6H1437v4.02a1.6,1.6,0,0,1-1.6,1.6h-24.98a1.6,1.6,0,0,1-1.6-1.6v-38.3a1.6,1.6,0,0,1,1.6-1.6h24.98a1.6,1.6,0,0,1,1.6,1.6v11.02h2.04v-6.9a0.88,0.88,0,0,1,1.76,0v6.9h14.89A2.279,2.279,0,0,1,1457.97,1750.71Zm-42.24-13.14h19.51v3.82h-19.51v-3.82Zm-5.15,0h3.39v3.82h-3.39v-3.82Zm24.66,37.99v-3.87h-10.92a2.288,2.288,0,0,1-2.29-2.28v-18.7a2.288,2.288,0,0,1,2.29-2.28h10.92v-5.29h-24.66v32.42h24.66Zm20.98-6.15v-9.62h-32.43v9.26a0.881,0.881,0,0,0,.88.88h31.02a0.538,0.538,0,0,0,.53-0.52h0Zm0-11.38h-32.43v-3.77h32.43v3.77h0Zm0-7.32a0.547,0.547,0,0,0-.53-0.53h-31.02a0.89,0.89,0,0,0-.88.89v1.43h32.43v-1.79Z" transform="translate(-1405.03 -1727)"/>
  <path id="Shape-5" data-name="Shape" class="cls-1" d="M1440.8,1730.71v6.72a0.88,0.88,0,0,1-1.76,0v-6.72a1.953,1.953,0,0,0-1.95-1.95h-28.36a1.953,1.953,0,0,0-1.95,1.95v52.58a1.953,1.953,0,0,0,1.95,1.95h12.13a0.88,0.88,0,0,1,0,1.76h-12.13a3.707,3.707,0,0,1-3.7-3.71v-52.58a3.707,3.707,0,0,1,3.7-3.71h28.36A3.715,3.715,0,0,1,1440.8,1730.71Z" transform="translate(-1405.03 -1727)"/>
</svg>
