<svg id="Stats" xmlns="http://www.w3.org/2000/svg" width="49.938" height="59.88" viewBox="0 0 49.938 59.88">
  <metadata><?xpacket begin="﻿" id="W5M0MpCehiHzreSzNTczkc9d"?>
<x:xmpmeta xmlns:x="adobe:ns:meta/" x:xmptk="Adobe XMP Core 5.6-c138 79.159824, 2016/09/14-01:09:01        ">
   <rdf:RDF xmlns:rdf="http://www.w3.org/1999/02/22-rdf-syntax-ns#">
      <rdf:Description rdf:about=""/>
   </rdf:RDF>
</x:xmpmeta>
                                                                                                    
                                                                                                    
                                                                                                    
                                                                                                    
                                                                                                    
                                                                                                    
                                                                                                    
                                                                                                    
                                                                                                    
                                                                                                    
                                                                                                    
                                                                                                    
                                                                                                    
                                                                                                    
                                                                                                    
                                                                                                    
                                                                                                    
                                                                                                    
                                                                                                    
                                                                                                    
                           
<?xpacket end="w"?></metadata>
<defs>
    <style>
      .cls-1 {
        fill: #fff;
        fill-rule: evenodd;
      }
    </style>
  </defs>
  <path id="Shape" class="cls-1" d="M646.041,1730.55a3.511,3.511,0,0,1-3.466,3.55,3.464,3.464,0,0,1-1.4-.3l-8.526,11.1a3.592,3.592,0,0,1,.613,2.01,3.467,3.467,0,1,1-6.932,0,3.6,3.6,0,0,1,.254-1.33l-4.983-4.04a3.415,3.415,0,0,1-3.727.11l-5.333,4.93a3.618,3.618,0,0,1,.426,1.7,3.467,3.467,0,1,1-3.466-3.55,3.364,3.364,0,0,1,1.872.57l5.292-4.89a3.614,3.614,0,0,1-.482-1.81,3.467,3.467,0,1,1,6.931,0,3.637,3.637,0,0,1-.38,1.62l4.866,3.95a3.388,3.388,0,0,1,3.757-.43l8.473-11.03a3.6,3.6,0,0,1-.717-2.16A3.467,3.467,0,1,1,646.041,1730.55Zm-34.789,17.73a1.754,1.754,0,1,0-1.754,1.8A1.772,1.772,0,0,0,611.252,1748.28Zm10.147-9.68a1.754,1.754,0,1,0-1.753,1.8A1.772,1.772,0,0,0,621.4,1738.6Zm10.147,8.31a1.754,1.754,0,1,0-1.753,1.8A1.772,1.772,0,0,0,631.546,1746.91Zm12.783-16.36a1.754,1.754,0,1,0-1.754,1.8A1.781,1.781,0,0,0,644.329,1730.55Z" transform="translate(-606.031 -1727)"/>
  <path id="Shape-2" data-name="Shape" class="cls-1" d="M655.645,1762.32l-4.95,11.61a0.038,0.038,0,0,0-.008.02,14.984,14.984,0,0,1-3.6,4.55c-0.778.79-.765,2.78-0.741,3.9,0.026,1.18.057,2.65-.871,3.62a3.081,3.081,0,0,1-2.327.86h-4.121a0.875,0.875,0,0,1,0-1.75h4.121a1.5,1.5,0,0,0,1.1-.33,3.8,3.8,0,0,0,.383-2.36c-0.038-1.79.019-3.94,1.248-5.19a13.548,13.548,0,0,0,3.245-4.04l4.948-11.6a0.056,0.056,0,0,0,.007-0.02,1.688,1.688,0,0,0-.7-2.19,1.718,1.718,0,0,0-2.389.72,0.031,0.031,0,0,1-.016.02l-4.775,6.43a0.856,0.856,0,0,1-1.537-.54v-12.1a0.856,0.856,0,1,1,1.712,0v9.5l3.231-4.34a3.378,3.378,0,0,1,4.634-1.21A3.466,3.466,0,0,1,655.645,1762.32Z" transform="translate(-606.031 -1727)"/>
  <path id="Shape-3" data-name="Shape" class="cls-1" d="M646.379,1740.72v9.12a0.857,0.857,0,1,1-1.713,0v-9.12a1.681,1.681,0,0,0-1.649-1.7h0a1.68,1.68,0,0,0-1.658,1.7c0,2.15,0,.76,0,21.99a0.857,0.857,0,1,1-1.713,0v-6.27a1.706,1.706,0,0,0-1.691-1.69,1.676,1.676,0,0,0-1.655,1.69v6.27a0.856,0.856,0,1,1-1.712,0v-5.57a1.656,1.656,0,1,0-3.31,0v5.57a0.856,0.856,0,1,1-1.712,0v-5.05a1.656,1.656,0,1,0-3.31,0c0,4.75.01,1.45,0,14.88,0,4.22,3.6,3.83,3.6,8.03l0,2.93a1.348,1.348,0,0,0,1.162,1.63h4.021a0.875,0.875,0,0,1,0,1.75h-4.169a3.057,3.057,0,0,1-2.726-3.38v-2.93c0-3.17-3.6-3.05-3.6-8.03,0-1.17,0-7.59,0-14.88a3.415,3.415,0,0,1,3.367-3.45,3.311,3.311,0,0,0,5.022-.52,3.312,3.312,0,0,1,2.215.85,3.352,3.352,0,0,1,2.807-1.55,3.265,3.265,0,0,1,1.692.47c0-11.53,0-11.06,0-12.74a3.418,3.418,0,0,1,3.37-3.45h0A3.41,3.41,0,0,1,646.379,1740.72Z" transform="translate(-606.031 -1727)"/>
</svg>
