<svg id="Chat" xmlns="http://www.w3.org/2000/svg" width="68" height="60" viewBox="0 0 68 60">
  <metadata><?xpacket begin="﻿" id="W5M0MpCehiHzreSzNTczkc9d"?>
<x:xmpmeta xmlns:x="adobe:ns:meta/" x:xmptk="Adobe XMP Core 5.6-c138 79.159824, 2016/09/14-01:09:01        ">
   <rdf:RDF xmlns:rdf="http://www.w3.org/1999/02/22-rdf-syntax-ns#">
      <rdf:Description rdf:about=""/>
   </rdf:RDF>
</x:xmpmeta>
                                                                                                    
                                                                                                    
                                                                                                    
                                                                                                    
                                                                                                    
                                                                                                    
                                                                                                    
                                                                                                    
                                                                                                    
                                                                                                    
                                                                                                    
                                                                                                    
                                                                                                    
                                                                                                    
                                                                                                    
                                                                                                    
                                                                                                    
                                                                                                    
                                                                                                    
                                                                                                    
                           
<?xpacket end="w"?></metadata>
<defs>
    <style>
      .cls-1 {
        fill: #babeca;
        fill-rule: evenodd;
      }
    </style>
  </defs>
  <path id="Shape" class="cls-1" d="M1009.47,1741.07a3.015,3.015,0,1,1-3.02-3A3.013,3.013,0,0,1,1009.47,1741.07Zm-1.99,0a1.025,1.025,0,1,0-1.03,1.02A1.026,1.026,0,0,0,1007.48,1741.07Z" transform="translate(-997 -1727)"/>
  <path id="Shape-2" data-name="Shape" class="cls-1" d="M1017.8,1741.07a3.015,3.015,0,1,1-3.02-3A3.02,3.02,0,0,1,1017.8,1741.07Zm-2,0a1.02,1.02,0,1,0-1.02,1.02A1.018,1.018,0,0,0,1015.8,1741.07Z" transform="translate(-997 -1727)"/>
  <path id="Shape-3" data-name="Shape" class="cls-1" d="M1026.13,1741.07a3.015,3.015,0,1,1-3.02-3A3.02,3.02,0,0,1,1026.13,1741.07Zm-2,0a1.02,1.02,0,1,0-1.02,1.02A1.018,1.018,0,0,0,1024.13,1741.07Z" transform="translate(-997 -1727)"/>
  <path id="Shape-4" data-name="Shape" class="cls-1" d="M1058.34,1768.19a0.986,0.986,0,0,1-.99.99h-36.26a0.99,0.99,0,1,1,0-1.98h36.26A0.986,0.986,0,0,1,1058.34,1768.19Z" transform="translate(-997 -1727)"/>
  <path id="Shape-5" data-name="Shape" class="cls-1" d="M1063.01,1754.91v-14.12a1.688,1.688,0,0,0-1.7-1.68h-28.26v6.04h24.3a1,1,0,0,1,0,1.99h-24.3v3.53h24.3a0.99,0.99,0,0,1,0,1.98h-24.37a2.862,2.862,0,0,1-2.79,2.22h-2.18v1.31h29.34a0.99,0.99,0,0,1,0,1.98h-29.34v2.57a1.515,1.515,0,0,1-.35.96h29.69a0.99,0.99,0,0,1,0,1.98h-36.26a0.99,0.99,0,0,1,0-1.98h4.26l-3.08-3.53h-1.18a0.989,0.989,0,0,1-.45-1.87l-1.17-1.34a0.25,0.25,0,0,0-.18-0.08h-3.35v17.85a1.694,1.694,0,0,0,1.69,1.69h3.76a1.807,1.807,0,0,1,1.81,1.8v8.36l8.03-9.21a2.8,2.8,0,0,1,2.1-.95h27.98a1.7,1.7,0,0,0,1.7-1.69v-13.19a1,1,0,0,1,1.99,0v13.19a3.677,3.677,0,0,1-3.69,3.67h-27.98a0.782,0.782,0,0,0-.59.27l-8.5,9.74a1.727,1.727,0,0,1-3.03-1.13v-8.88h-3.58a3.683,3.683,0,0,1-3.69-3.67v-17.85H999.863a2.861,2.861,0,0,1-2.863-2.85v-22.17a2.861,2.861,0,0,1,2.863-2.85h12.6a1,1,0,0,1,0,1.99h-12.6a0.863,0.863,0,0,0-.871.86v22.17a0.863,0.863,0,0,0,.871.86h19.427a2.2,2.2,0,0,1,1.68.77l5.05,5.78v-5a1.551,1.551,0,0,1,1.55-1.55h2.62a0.862,0.862,0,0,0,.87-0.86v-22.17a0.871,0.871,0,0,0-.87-0.87h-13.08a0.99,0.99,0,1,1,0-1.98h13.08a2.857,2.857,0,0,1,2.86,2.85v7.27h28.26a3.683,3.683,0,0,1,3.69,3.67v14.12A1,1,0,0,1,1063.01,1754.91Z" transform="translate(-997 -1727)"/>
</svg>
